<mxfile host="app.diagrams.net" modified="2024-04-10T14:26:43.082Z" agent="Mozilla/5.0 (Windows NT 10.0; Win64; x64) AppleWebKit/537.36 (KHTML, like Gecko) Chrome/123.0.0.0 Safari/537.36" etag="fFARfUYzx-dvslkV2lgM" version="24.2.3" type="device">
  <diagram id="R2lEEEUBdFMjLlhIrx00" name="Page-1">
    <mxGraphModel dx="1839" dy="1614" grid="1" gridSize="10" guides="1" tooltips="1" connect="1" arrows="1" fold="1" page="1" pageScale="1" pageWidth="850" pageHeight="1100" math="0" shadow="0" extFonts="Permanent Marker^https://fonts.googleapis.com/css?family=Permanent+Marker">
      <root>
        <mxCell id="0" />
        <mxCell id="1" parent="0" />
        <mxCell id="8y2F_Z1mfyyD46PflWzy-3" value="camionero" style="whiteSpace=wrap;html=1;align=center;fillColor=#1ba1e2;strokeColor=#006EAF;fontColor=#ffffff;" vertex="1" parent="1">
          <mxGeometry x="170" y="120" width="100" height="40" as="geometry" />
        </mxCell>
        <mxCell id="8y2F_Z1mfyyD46PflWzy-4" value="dni" style="ellipse;whiteSpace=wrap;html=1;align=center;fillColor=#bac8d3;strokeColor=#23445d;" vertex="1" parent="1">
          <mxGeometry x="160" y="60" width="60" height="30" as="geometry" />
        </mxCell>
        <mxCell id="8y2F_Z1mfyyD46PflWzy-5" value="nombre" style="ellipse;whiteSpace=wrap;html=1;align=center;fillColor=#bac8d3;strokeColor=#23445d;" vertex="1" parent="1">
          <mxGeometry x="70" y="30" width="70" height="30" as="geometry" />
        </mxCell>
        <mxCell id="8y2F_Z1mfyyD46PflWzy-6" value="telefono" style="ellipse;shape=doubleEllipse;margin=3;whiteSpace=wrap;html=1;align=center;fillColor=#bac8d3;strokeColor=#23445d;" vertex="1" parent="1">
          <mxGeometry x="230" y="20" width="80" height="30" as="geometry" />
        </mxCell>
        <mxCell id="8y2F_Z1mfyyD46PflWzy-7" value="direccion" style="ellipse;whiteSpace=wrap;html=1;align=center;fillColor=#bac8d3;strokeColor=#23445d;" vertex="1" parent="1">
          <mxGeometry x="40" y="70" width="70" height="35" as="geometry" />
        </mxCell>
        <mxCell id="8y2F_Z1mfyyD46PflWzy-8" value="salario" style="ellipse;whiteSpace=wrap;html=1;align=center;fillColor=#bac8d3;strokeColor=#23445d;" vertex="1" parent="1">
          <mxGeometry x="60" y="120" width="50" height="30" as="geometry" />
        </mxCell>
        <mxCell id="8y2F_Z1mfyyD46PflWzy-9" value="poblacion" style="ellipse;whiteSpace=wrap;html=1;align=center;fillColor=#bac8d3;strokeColor=#23445d;" vertex="1" parent="1">
          <mxGeometry x="60" y="160" width="60" height="30" as="geometry" />
        </mxCell>
        <mxCell id="8y2F_Z1mfyyD46PflWzy-11" value="" style="endArrow=none;html=1;rounded=0;exitX=1;exitY=1;exitDx=0;exitDy=0;entryX=0;entryY=0;entryDx=0;entryDy=0;" edge="1" parent="1" source="8y2F_Z1mfyyD46PflWzy-5" target="8y2F_Z1mfyyD46PflWzy-3">
          <mxGeometry relative="1" as="geometry">
            <mxPoint x="520" y="370" as="sourcePoint" />
            <mxPoint x="680" y="370" as="targetPoint" />
          </mxGeometry>
        </mxCell>
        <mxCell id="8y2F_Z1mfyyD46PflWzy-12" value="" style="endArrow=none;html=1;rounded=0;exitX=1;exitY=0.5;exitDx=0;exitDy=0;entryX=0;entryY=0.25;entryDx=0;entryDy=0;" edge="1" parent="1" source="8y2F_Z1mfyyD46PflWzy-7" target="8y2F_Z1mfyyD46PflWzy-3">
          <mxGeometry relative="1" as="geometry">
            <mxPoint x="105" y="44" as="sourcePoint" />
            <mxPoint x="180" y="130" as="targetPoint" />
          </mxGeometry>
        </mxCell>
        <mxCell id="8y2F_Z1mfyyD46PflWzy-13" value="" style="endArrow=none;html=1;rounded=0;exitX=1;exitY=0.5;exitDx=0;exitDy=0;entryX=0;entryY=0.5;entryDx=0;entryDy=0;" edge="1" parent="1" source="8y2F_Z1mfyyD46PflWzy-8" target="8y2F_Z1mfyyD46PflWzy-3">
          <mxGeometry relative="1" as="geometry">
            <mxPoint x="115" y="54" as="sourcePoint" />
            <mxPoint x="160" y="190" as="targetPoint" />
          </mxGeometry>
        </mxCell>
        <mxCell id="8y2F_Z1mfyyD46PflWzy-14" value="" style="endArrow=none;html=1;rounded=0;exitX=1;exitY=0.5;exitDx=0;exitDy=0;entryX=0;entryY=0.75;entryDx=0;entryDy=0;" edge="1" parent="1" source="8y2F_Z1mfyyD46PflWzy-9" target="8y2F_Z1mfyyD46PflWzy-3">
          <mxGeometry relative="1" as="geometry">
            <mxPoint x="125" y="64" as="sourcePoint" />
            <mxPoint x="200" y="150" as="targetPoint" />
          </mxGeometry>
        </mxCell>
        <mxCell id="8y2F_Z1mfyyD46PflWzy-15" value="" style="endArrow=none;html=1;rounded=0;exitX=0.5;exitY=1;exitDx=0;exitDy=0;entryX=0.25;entryY=0;entryDx=0;entryDy=0;" edge="1" parent="1" source="8y2F_Z1mfyyD46PflWzy-4" target="8y2F_Z1mfyyD46PflWzy-3">
          <mxGeometry relative="1" as="geometry">
            <mxPoint x="135" y="74" as="sourcePoint" />
            <mxPoint x="210" y="160" as="targetPoint" />
          </mxGeometry>
        </mxCell>
        <mxCell id="8y2F_Z1mfyyD46PflWzy-16" value="" style="endArrow=none;html=1;rounded=0;exitX=0.5;exitY=1;exitDx=0;exitDy=0;entryX=0.5;entryY=0;entryDx=0;entryDy=0;" edge="1" parent="1" source="8y2F_Z1mfyyD46PflWzy-6" target="8y2F_Z1mfyyD46PflWzy-3">
          <mxGeometry relative="1" as="geometry">
            <mxPoint x="145" y="84" as="sourcePoint" />
            <mxPoint x="220" y="170" as="targetPoint" />
          </mxGeometry>
        </mxCell>
        <mxCell id="8y2F_Z1mfyyD46PflWzy-18" value="" style="endArrow=none;html=1;rounded=0;exitX=0;exitY=1;exitDx=0;exitDy=0;entryX=1;entryY=0;entryDx=0;entryDy=0;" edge="1" parent="1" source="8y2F_Z1mfyyD46PflWzy-19" target="8y2F_Z1mfyyD46PflWzy-3">
          <mxGeometry relative="1" as="geometry">
            <mxPoint x="354.64466094067257" y="74.14213562373084" as="sourcePoint" />
            <mxPoint x="230" y="180" as="targetPoint" />
          </mxGeometry>
        </mxCell>
        <mxCell id="8y2F_Z1mfyyD46PflWzy-19" value="id_camionero" style="ellipse;whiteSpace=wrap;html=1;align=center;fontStyle=4;fillColor=#b1ddf0;strokeColor=#10739e;" vertex="1" parent="1">
          <mxGeometry x="270" y="55" width="90" height="40" as="geometry" />
        </mxCell>
        <mxCell id="8y2F_Z1mfyyD46PflWzy-20" value="paquete" style="whiteSpace=wrap;html=1;align=center;fillColor=#1ba1e2;strokeColor=#006EAF;fontColor=#ffffff;" vertex="1" parent="1">
          <mxGeometry x="520" y="120" width="100" height="40" as="geometry" />
        </mxCell>
        <mxCell id="8y2F_Z1mfyyD46PflWzy-21" value="codigo" style="ellipse;whiteSpace=wrap;html=1;align=center;fontStyle=4;fillColor=#b1ddf0;strokeColor=#10739e;" vertex="1" parent="1">
          <mxGeometry x="425" y="60" width="55" height="30" as="geometry" />
        </mxCell>
        <mxCell id="8y2F_Z1mfyyD46PflWzy-22" value="descripcion" style="ellipse;whiteSpace=wrap;html=1;align=center;fillColor=#bac8d3;strokeColor=#23445d;" vertex="1" parent="1">
          <mxGeometry x="480" y="30" width="90" height="30" as="geometry" />
        </mxCell>
        <mxCell id="8y2F_Z1mfyyD46PflWzy-23" value="destinatario" style="ellipse;whiteSpace=wrap;html=1;align=center;fillColor=#bac8d3;strokeColor=#23445d;" vertex="1" parent="1">
          <mxGeometry x="570" y="55" width="80" height="30" as="geometry" />
        </mxCell>
        <mxCell id="8y2F_Z1mfyyD46PflWzy-24" value="direccion" style="ellipse;whiteSpace=wrap;html=1;align=center;fillColor=#bac8d3;strokeColor=#23445d;" vertex="1" parent="1">
          <mxGeometry x="650" y="75" width="70" height="30" as="geometry" />
        </mxCell>
        <mxCell id="8y2F_Z1mfyyD46PflWzy-25" value="" style="endArrow=none;html=1;rounded=0;exitX=1;exitY=1;exitDx=0;exitDy=0;entryX=0;entryY=0;entryDx=0;entryDy=0;" edge="1" parent="1" source="8y2F_Z1mfyyD46PflWzy-21" target="8y2F_Z1mfyyD46PflWzy-20">
          <mxGeometry relative="1" as="geometry">
            <mxPoint x="355" y="84" as="sourcePoint" />
            <mxPoint x="280" y="130" as="targetPoint" />
          </mxGeometry>
        </mxCell>
        <mxCell id="8y2F_Z1mfyyD46PflWzy-26" value="" style="endArrow=none;html=1;rounded=0;exitX=0.5;exitY=1;exitDx=0;exitDy=0;entryX=0.25;entryY=0;entryDx=0;entryDy=0;" edge="1" parent="1" source="8y2F_Z1mfyyD46PflWzy-22" target="8y2F_Z1mfyyD46PflWzy-20">
          <mxGeometry relative="1" as="geometry">
            <mxPoint x="365" y="94" as="sourcePoint" />
            <mxPoint x="290" y="140" as="targetPoint" />
          </mxGeometry>
        </mxCell>
        <mxCell id="8y2F_Z1mfyyD46PflWzy-27" value="" style="endArrow=none;html=1;rounded=0;exitX=0;exitY=1;exitDx=0;exitDy=0;entryX=0.5;entryY=0;entryDx=0;entryDy=0;" edge="1" parent="1" source="8y2F_Z1mfyyD46PflWzy-23" target="8y2F_Z1mfyyD46PflWzy-20">
          <mxGeometry relative="1" as="geometry">
            <mxPoint x="375" y="104" as="sourcePoint" />
            <mxPoint x="300" y="150" as="targetPoint" />
          </mxGeometry>
        </mxCell>
        <mxCell id="8y2F_Z1mfyyD46PflWzy-28" value="" style="endArrow=none;html=1;rounded=0;exitX=0;exitY=1;exitDx=0;exitDy=0;entryX=1;entryY=0;entryDx=0;entryDy=0;" edge="1" parent="1" source="8y2F_Z1mfyyD46PflWzy-24" target="8y2F_Z1mfyyD46PflWzy-20">
          <mxGeometry relative="1" as="geometry">
            <mxPoint x="385" y="114" as="sourcePoint" />
            <mxPoint x="310" y="160" as="targetPoint" />
          </mxGeometry>
        </mxCell>
        <mxCell id="8y2F_Z1mfyyD46PflWzy-29" value="&lt;b&gt;&lt;font style=&quot;font-size: 19px;&quot;&gt;DER Requerimiento 2 - Distribuidor&lt;/font&gt;&lt;/b&gt;" style="text;html=1;align=center;verticalAlign=middle;resizable=0;points=[];autosize=1;strokeColor=none;fillColor=none;" vertex="1" parent="1">
          <mxGeometry x="230" y="-40" width="340" height="40" as="geometry" />
        </mxCell>
        <mxCell id="8y2F_Z1mfyyD46PflWzy-30" value="Transporta" style="shape=rhombus;perimeter=rhombusPerimeter;whiteSpace=wrap;html=1;align=center;fillColor=#008a00;fontColor=#ffffff;strokeColor=#005700;" vertex="1" parent="1">
          <mxGeometry x="330" y="120" width="120" height="60" as="geometry" />
        </mxCell>
        <mxCell id="8y2F_Z1mfyyD46PflWzy-31" value="" style="endArrow=none;html=1;rounded=0;exitX=1;exitY=0.75;exitDx=0;exitDy=0;entryX=0;entryY=0.5;entryDx=0;entryDy=0;" edge="1" parent="1" source="8y2F_Z1mfyyD46PflWzy-3" target="8y2F_Z1mfyyD46PflWzy-30">
          <mxGeometry relative="1" as="geometry">
            <mxPoint x="520" y="360" as="sourcePoint" />
            <mxPoint x="680" y="360" as="targetPoint" />
          </mxGeometry>
        </mxCell>
        <mxCell id="8y2F_Z1mfyyD46PflWzy-32" value="" style="endArrow=none;html=1;rounded=0;exitX=0;exitY=0.75;exitDx=0;exitDy=0;entryX=1;entryY=0.5;entryDx=0;entryDy=0;" edge="1" parent="1" source="8y2F_Z1mfyyD46PflWzy-20" target="8y2F_Z1mfyyD46PflWzy-30">
          <mxGeometry relative="1" as="geometry">
            <mxPoint x="395" y="124" as="sourcePoint" />
            <mxPoint x="320" y="170" as="targetPoint" />
          </mxGeometry>
        </mxCell>
        <mxCell id="8y2F_Z1mfyyD46PflWzy-33" value="1" style="text;html=1;align=center;verticalAlign=middle;resizable=0;points=[];autosize=1;strokeColor=none;fillColor=none;" vertex="1" parent="1">
          <mxGeometry x="270" y="125" width="30" height="30" as="geometry" />
        </mxCell>
        <mxCell id="8y2F_Z1mfyyD46PflWzy-34" value="n" style="text;html=1;align=center;verticalAlign=middle;resizable=0;points=[];autosize=1;strokeColor=none;fillColor=none;" vertex="1" parent="1">
          <mxGeometry x="490" y="125" width="30" height="30" as="geometry" />
        </mxCell>
        <mxCell id="8y2F_Z1mfyyD46PflWzy-35" value="provincia" style="whiteSpace=wrap;html=1;align=center;fillColor=#1ba1e2;strokeColor=#006EAF;fontColor=#ffffff;" vertex="1" parent="1">
          <mxGeometry x="540" y="300" width="100" height="40" as="geometry" />
        </mxCell>
        <mxCell id="8y2F_Z1mfyyD46PflWzy-36" value="nombre" style="ellipse;whiteSpace=wrap;html=1;align=center;fillColor=#bac8d3;strokeColor=#23445d;" vertex="1" parent="1">
          <mxGeometry x="690" y="300" width="60" height="30" as="geometry" />
        </mxCell>
        <mxCell id="8y2F_Z1mfyyD46PflWzy-37" value="codigo" style="ellipse;whiteSpace=wrap;html=1;align=center;fontStyle=4;fillColor=#b1ddf0;strokeColor=#10739e;" vertex="1" parent="1">
          <mxGeometry x="665" y="240" width="60" height="30" as="geometry" />
        </mxCell>
        <mxCell id="8y2F_Z1mfyyD46PflWzy-38" value="Llegan" style="shape=rhombus;perimeter=rhombusPerimeter;whiteSpace=wrap;html=1;align=center;fillColor=#008a00;fontColor=#ffffff;strokeColor=#005700;" vertex="1" parent="1">
          <mxGeometry x="510" y="200" width="120" height="60" as="geometry" />
        </mxCell>
        <mxCell id="8y2F_Z1mfyyD46PflWzy-39" value="" style="endArrow=none;html=1;rounded=0;exitX=0.5;exitY=0;exitDx=0;exitDy=0;entryX=0.5;entryY=1;entryDx=0;entryDy=0;" edge="1" parent="1" source="8y2F_Z1mfyyD46PflWzy-38" target="8y2F_Z1mfyyD46PflWzy-20">
          <mxGeometry relative="1" as="geometry">
            <mxPoint x="555" y="84" as="sourcePoint" />
            <mxPoint x="610" y="130" as="targetPoint" />
          </mxGeometry>
        </mxCell>
        <mxCell id="8y2F_Z1mfyyD46PflWzy-40" value="" style="endArrow=none;html=1;rounded=0;exitX=0.5;exitY=1;exitDx=0;exitDy=0;entryX=0.25;entryY=0;entryDx=0;entryDy=0;" edge="1" parent="1" source="8y2F_Z1mfyyD46PflWzy-38" target="8y2F_Z1mfyyD46PflWzy-35">
          <mxGeometry relative="1" as="geometry">
            <mxPoint x="565" y="94" as="sourcePoint" />
            <mxPoint x="620" y="140" as="targetPoint" />
          </mxGeometry>
        </mxCell>
        <mxCell id="8y2F_Z1mfyyD46PflWzy-41" value="1" style="text;html=1;align=center;verticalAlign=middle;resizable=0;points=[];autosize=1;strokeColor=none;fillColor=none;" vertex="1" parent="1">
          <mxGeometry x="570" y="270" width="30" height="30" as="geometry" />
        </mxCell>
        <mxCell id="8y2F_Z1mfyyD46PflWzy-42" value="n" style="text;html=1;align=center;verticalAlign=middle;resizable=0;points=[];autosize=1;strokeColor=none;fillColor=none;" vertex="1" parent="1">
          <mxGeometry x="570" y="160" width="30" height="30" as="geometry" />
        </mxCell>
        <mxCell id="8y2F_Z1mfyyD46PflWzy-43" value="" style="endArrow=none;html=1;rounded=0;exitX=0;exitY=1;exitDx=0;exitDy=0;entryX=1;entryY=0;entryDx=0;entryDy=0;" edge="1" parent="1" source="8y2F_Z1mfyyD46PflWzy-37" target="8y2F_Z1mfyyD46PflWzy-35">
          <mxGeometry relative="1" as="geometry">
            <mxPoint x="575" y="104" as="sourcePoint" />
            <mxPoint x="630" y="150" as="targetPoint" />
          </mxGeometry>
        </mxCell>
        <mxCell id="8y2F_Z1mfyyD46PflWzy-44" value="" style="endArrow=none;html=1;rounded=0;exitX=1;exitY=0.5;exitDx=0;exitDy=0;entryX=0;entryY=0.5;entryDx=0;entryDy=0;" edge="1" parent="1" source="8y2F_Z1mfyyD46PflWzy-35" target="8y2F_Z1mfyyD46PflWzy-36">
          <mxGeometry relative="1" as="geometry">
            <mxPoint x="585" y="114" as="sourcePoint" />
            <mxPoint x="640" y="160" as="targetPoint" />
          </mxGeometry>
        </mxCell>
        <mxCell id="8y2F_Z1mfyyD46PflWzy-45" value="camion" style="whiteSpace=wrap;html=1;align=center;fillColor=#1ba1e2;strokeColor=#006EAF;fontColor=#ffffff;" vertex="1" parent="1">
          <mxGeometry x="145" y="300" width="100" height="40" as="geometry" />
        </mxCell>
        <mxCell id="8y2F_Z1mfyyD46PflWzy-46" value="matricula" style="ellipse;whiteSpace=wrap;html=1;align=center;fontStyle=4;fillColor=#b1ddf0;strokeColor=#10739e;" vertex="1" parent="1">
          <mxGeometry x="20" y="240" width="60" height="30" as="geometry" />
        </mxCell>
        <mxCell id="8y2F_Z1mfyyD46PflWzy-47" value="modelo" style="ellipse;whiteSpace=wrap;html=1;align=center;fillColor=#bac8d3;strokeColor=#23445d;" vertex="1" parent="1">
          <mxGeometry x="20" y="280" width="60" height="30" as="geometry" />
        </mxCell>
        <mxCell id="8y2F_Z1mfyyD46PflWzy-48" value="tipo" style="ellipse;whiteSpace=wrap;html=1;align=center;fillColor=#bac8d3;strokeColor=#23445d;direction=south;" vertex="1" parent="1">
          <mxGeometry x="65" y="310" width="40" height="30" as="geometry" />
        </mxCell>
        <mxCell id="8y2F_Z1mfyyD46PflWzy-49" value="potencia" style="ellipse;whiteSpace=wrap;html=1;align=center;fillColor=#bac8d3;strokeColor=#23445d;" vertex="1" parent="1">
          <mxGeometry x="270" y="270" width="60" height="30" as="geometry" />
        </mxCell>
        <mxCell id="8y2F_Z1mfyyD46PflWzy-50" value="" style="endArrow=none;html=1;rounded=0;exitX=1;exitY=0.5;exitDx=0;exitDy=0;entryX=0;entryY=0;entryDx=0;entryDy=0;" edge="1" parent="1" source="8y2F_Z1mfyyD46PflWzy-46" target="8y2F_Z1mfyyD46PflWzy-45">
          <mxGeometry relative="1" as="geometry">
            <mxPoint x="70" y="200" as="sourcePoint" />
            <mxPoint x="140" y="300" as="targetPoint" />
          </mxGeometry>
        </mxCell>
        <mxCell id="8y2F_Z1mfyyD46PflWzy-51" value="" style="endArrow=none;html=1;rounded=0;exitX=1;exitY=0.5;exitDx=0;exitDy=0;entryX=0;entryY=0.25;entryDx=0;entryDy=0;" edge="1" parent="1" source="8y2F_Z1mfyyD46PflWzy-47" target="8y2F_Z1mfyyD46PflWzy-45">
          <mxGeometry relative="1" as="geometry">
            <mxPoint x="70" y="310" as="sourcePoint" />
            <mxPoint x="100" y="320" as="targetPoint" />
          </mxGeometry>
        </mxCell>
        <mxCell id="8y2F_Z1mfyyD46PflWzy-52" value="" style="endArrow=none;html=1;rounded=0;exitX=0.5;exitY=0;exitDx=0;exitDy=0;entryX=0;entryY=0.5;entryDx=0;entryDy=0;" edge="1" parent="1" source="8y2F_Z1mfyyD46PflWzy-48" target="8y2F_Z1mfyyD46PflWzy-45">
          <mxGeometry relative="1" as="geometry">
            <mxPoint x="64" y="359" as="sourcePoint" />
            <mxPoint x="130" y="350" as="targetPoint" />
          </mxGeometry>
        </mxCell>
        <mxCell id="8y2F_Z1mfyyD46PflWzy-53" value="" style="endArrow=none;html=1;rounded=0;exitX=1;exitY=0;exitDx=0;exitDy=0;entryX=0;entryY=0.5;entryDx=0;entryDy=0;" edge="1" parent="1" source="8y2F_Z1mfyyD46PflWzy-45" target="8y2F_Z1mfyyD46PflWzy-49">
          <mxGeometry relative="1" as="geometry">
            <mxPoint x="74" y="369" as="sourcePoint" />
            <mxPoint x="155" y="340" as="targetPoint" />
          </mxGeometry>
        </mxCell>
        <mxCell id="8y2F_Z1mfyyD46PflWzy-55" value="conduce" style="shape=rhombus;perimeter=rhombusPerimeter;whiteSpace=wrap;html=1;align=center;fillColor=#008a00;fontColor=#ffffff;strokeColor=#005700;" vertex="1" parent="1">
          <mxGeometry x="160" y="200" width="120" height="60" as="geometry" />
        </mxCell>
        <mxCell id="8y2F_Z1mfyyD46PflWzy-56" value="" style="endArrow=none;html=1;rounded=0;entryX=0.5;entryY=0;entryDx=0;entryDy=0;exitX=0.5;exitY=1;exitDx=0;exitDy=0;" edge="1" parent="1" source="8y2F_Z1mfyyD46PflWzy-3" target="8y2F_Z1mfyyD46PflWzy-55">
          <mxGeometry relative="1" as="geometry">
            <mxPoint x="260" y="350" as="sourcePoint" />
            <mxPoint x="260" y="400" as="targetPoint" />
          </mxGeometry>
        </mxCell>
        <mxCell id="8y2F_Z1mfyyD46PflWzy-57" value="" style="endArrow=none;html=1;rounded=0;exitX=0.5;exitY=1;exitDx=0;exitDy=0;entryX=0.75;entryY=0;entryDx=0;entryDy=0;" edge="1" parent="1" source="8y2F_Z1mfyyD46PflWzy-55" target="8y2F_Z1mfyyD46PflWzy-45">
          <mxGeometry relative="1" as="geometry">
            <mxPoint x="270" y="360" as="sourcePoint" />
            <mxPoint x="270" y="410" as="targetPoint" />
          </mxGeometry>
        </mxCell>
        <mxCell id="8y2F_Z1mfyyD46PflWzy-58" value="fecha" style="ellipse;whiteSpace=wrap;html=1;align=center;fillColor=#cdeb8b;strokeColor=#36393d;" vertex="1" parent="1">
          <mxGeometry x="80" y="210" width="60" height="30" as="geometry" />
        </mxCell>
        <mxCell id="8y2F_Z1mfyyD46PflWzy-59" value="" style="endArrow=none;html=1;rounded=0;exitX=1;exitY=0.5;exitDx=0;exitDy=0;entryX=0;entryY=0.5;entryDx=0;entryDy=0;" edge="1" parent="1" source="8y2F_Z1mfyyD46PflWzy-58" target="8y2F_Z1mfyyD46PflWzy-55">
          <mxGeometry relative="1" as="geometry">
            <mxPoint x="270" y="270" as="sourcePoint" />
            <mxPoint x="260" y="310" as="targetPoint" />
          </mxGeometry>
        </mxCell>
        <mxCell id="8y2F_Z1mfyyD46PflWzy-60" value="n" style="text;html=1;align=center;verticalAlign=middle;resizable=0;points=[];autosize=1;strokeColor=none;fillColor=none;" vertex="1" parent="1">
          <mxGeometry x="200" y="155" width="30" height="30" as="geometry" />
        </mxCell>
        <mxCell id="8y2F_Z1mfyyD46PflWzy-61" value="n" style="text;html=1;align=center;verticalAlign=middle;resizable=0;points=[];autosize=1;strokeColor=none;fillColor=none;" vertex="1" parent="1">
          <mxGeometry x="200" y="270" width="30" height="30" as="geometry" />
        </mxCell>
        <mxCell id="8y2F_Z1mfyyD46PflWzy-64" value="numero" style="ellipse;whiteSpace=wrap;html=1;align=center;fillColor=#bac8d3;strokeColor=#23445d;" vertex="1" parent="1">
          <mxGeometry x="-30" y="50" width="60" height="25" as="geometry" />
        </mxCell>
        <mxCell id="8y2F_Z1mfyyD46PflWzy-65" value="calle" style="ellipse;whiteSpace=wrap;html=1;align=center;fillColor=#bac8d3;strokeColor=#23445d;direction=south;" vertex="1" parent="1">
          <mxGeometry x="10" y="10" width="40" height="30" as="geometry" />
        </mxCell>
        <mxCell id="8y2F_Z1mfyyD46PflWzy-68" value="" style="endArrow=none;html=1;rounded=0;exitX=1;exitY=0;exitDx=0;exitDy=0;entryX=0.5;entryY=0;entryDx=0;entryDy=0;" edge="1" parent="1" source="8y2F_Z1mfyyD46PflWzy-65" target="8y2F_Z1mfyyD46PflWzy-7">
          <mxGeometry relative="1" as="geometry">
            <mxPoint x="120" y="100" as="sourcePoint" />
            <mxPoint x="180" y="140" as="targetPoint" />
          </mxGeometry>
        </mxCell>
        <mxCell id="8y2F_Z1mfyyD46PflWzy-69" value="" style="endArrow=none;html=1;rounded=0;exitX=1;exitY=1;exitDx=0;exitDy=0;entryX=0;entryY=0;entryDx=0;entryDy=0;" edge="1" parent="1" source="8y2F_Z1mfyyD46PflWzy-64" target="8y2F_Z1mfyyD46PflWzy-7">
          <mxGeometry relative="1" as="geometry">
            <mxPoint x="130" y="110" as="sourcePoint" />
            <mxPoint x="190" y="150" as="targetPoint" />
          </mxGeometry>
        </mxCell>
        <mxCell id="8y2F_Z1mfyyD46PflWzy-70" value="calle" style="ellipse;whiteSpace=wrap;html=1;align=center;fillColor=#bac8d3;strokeColor=#23445d;direction=south;" vertex="1" parent="1">
          <mxGeometry x="665" y="20" width="40" height="30" as="geometry" />
        </mxCell>
        <mxCell id="8y2F_Z1mfyyD46PflWzy-71" value="numero" style="ellipse;whiteSpace=wrap;html=1;align=center;fillColor=#bac8d3;strokeColor=#23445d;" vertex="1" parent="1">
          <mxGeometry x="710" y="35" width="60" height="25" as="geometry" />
        </mxCell>
        <mxCell id="8y2F_Z1mfyyD46PflWzy-72" value="cp" style="ellipse;whiteSpace=wrap;html=1;align=center;fillColor=#bac8d3;strokeColor=#23445d;" vertex="1" parent="1">
          <mxGeometry x="655" y="125" width="60" height="25" as="geometry" />
        </mxCell>
        <mxCell id="8y2F_Z1mfyyD46PflWzy-74" value="" style="endArrow=none;html=1;rounded=0;exitX=1;exitY=0.5;exitDx=0;exitDy=0;entryX=0.5;entryY=0;entryDx=0;entryDy=0;" edge="1" parent="1" source="8y2F_Z1mfyyD46PflWzy-70" target="8y2F_Z1mfyyD46PflWzy-24">
          <mxGeometry relative="1" as="geometry">
            <mxPoint x="670" y="111" as="sourcePoint" />
            <mxPoint x="630" y="130" as="targetPoint" />
          </mxGeometry>
        </mxCell>
        <mxCell id="8y2F_Z1mfyyD46PflWzy-75" value="" style="endArrow=none;html=1;rounded=0;exitX=0;exitY=1;exitDx=0;exitDy=0;entryX=1;entryY=0;entryDx=0;entryDy=0;" edge="1" parent="1" source="8y2F_Z1mfyyD46PflWzy-71" target="8y2F_Z1mfyyD46PflWzy-24">
          <mxGeometry relative="1" as="geometry">
            <mxPoint x="680" y="121" as="sourcePoint" />
            <mxPoint x="640" y="140" as="targetPoint" />
          </mxGeometry>
        </mxCell>
        <mxCell id="8y2F_Z1mfyyD46PflWzy-77" value="" style="endArrow=none;html=1;rounded=0;exitX=0.5;exitY=1;exitDx=0;exitDy=0;entryX=0.5;entryY=0;entryDx=0;entryDy=0;" edge="1" parent="1" source="8y2F_Z1mfyyD46PflWzy-24" target="8y2F_Z1mfyyD46PflWzy-72">
          <mxGeometry relative="1" as="geometry">
            <mxPoint x="690" y="131" as="sourcePoint" />
            <mxPoint x="660" y="150" as="targetPoint" />
          </mxGeometry>
        </mxCell>
        <mxCell id="8y2F_Z1mfyyD46PflWzy-79" value="piso" style="ellipse;whiteSpace=wrap;html=1;align=center;fillColor=#bac8d3;strokeColor=#23445d;" vertex="1" parent="1">
          <mxGeometry x="730" y="90" width="60" height="25" as="geometry" />
        </mxCell>
        <mxCell id="8y2F_Z1mfyyD46PflWzy-80" value="" style="endArrow=none;html=1;rounded=0;exitX=0;exitY=0.5;exitDx=0;exitDy=0;entryX=1;entryY=1;entryDx=0;entryDy=0;" edge="1" parent="1" source="8y2F_Z1mfyyD46PflWzy-79" target="8y2F_Z1mfyyD46PflWzy-24">
          <mxGeometry relative="1" as="geometry">
            <mxPoint x="670" y="110" as="sourcePoint" />
            <mxPoint x="630" y="130" as="targetPoint" />
          </mxGeometry>
        </mxCell>
        <mxCell id="8y2F_Z1mfyyD46PflWzy-82" value="cp" style="ellipse;whiteSpace=wrap;html=1;align=center;fillColor=#bac8d3;strokeColor=#23445d;" vertex="1" parent="1">
          <mxGeometry x="-20" y="105" width="40" height="20" as="geometry" />
        </mxCell>
        <mxCell id="8y2F_Z1mfyyD46PflWzy-83" value="" style="endArrow=none;html=1;rounded=0;exitX=1;exitY=0;exitDx=0;exitDy=0;entryX=0;entryY=1;entryDx=0;entryDy=0;" edge="1" parent="1" source="8y2F_Z1mfyyD46PflWzy-82" target="8y2F_Z1mfyyD46PflWzy-7">
          <mxGeometry relative="1" as="geometry">
            <mxPoint x="120" y="100" as="sourcePoint" />
            <mxPoint x="180" y="140" as="targetPoint" />
          </mxGeometry>
        </mxCell>
        <mxCell id="8y2F_Z1mfyyD46PflWzy-84" value="tipo" style="ellipse;whiteSpace=wrap;html=1;align=center;fillColor=#bac8d3;strokeColor=#23445d;" vertex="1" parent="1">
          <mxGeometry x="130" width="40" height="20" as="geometry" />
        </mxCell>
        <mxCell id="8y2F_Z1mfyyD46PflWzy-85" value="numero" style="ellipse;whiteSpace=wrap;html=1;align=center;fillColor=#bac8d3;strokeColor=#23445d;" vertex="1" parent="1">
          <mxGeometry x="180" width="50" height="30" as="geometry" />
        </mxCell>
        <mxCell id="8y2F_Z1mfyyD46PflWzy-86" value="" style="endArrow=none;html=1;rounded=0;exitX=0.5;exitY=1;exitDx=0;exitDy=0;entryX=0;entryY=0;entryDx=0;entryDy=0;" edge="1" parent="1" source="8y2F_Z1mfyyD46PflWzy-84" target="8y2F_Z1mfyyD46PflWzy-4">
          <mxGeometry relative="1" as="geometry">
            <mxPoint x="140" y="65" as="sourcePoint" />
            <mxPoint x="180" y="130" as="targetPoint" />
          </mxGeometry>
        </mxCell>
        <mxCell id="8y2F_Z1mfyyD46PflWzy-87" value="" style="endArrow=none;html=1;rounded=0;entryX=0.5;entryY=0;entryDx=0;entryDy=0;" edge="1" parent="1" source="8y2F_Z1mfyyD46PflWzy-85" target="8y2F_Z1mfyyD46PflWzy-4">
          <mxGeometry relative="1" as="geometry">
            <mxPoint x="150" y="75" as="sourcePoint" />
            <mxPoint x="190" y="140" as="targetPoint" />
          </mxGeometry>
        </mxCell>
      </root>
    </mxGraphModel>
  </diagram>
</mxfile>
